<svg width="143" height="143" viewBox="0 0 143 143" fill="none" xmlns="http://www.w3.org/2000/svg">
<rect x="1" y="1" width="141" height="141" rx="70.5" fill="white"/>
<rect x="1" y="1" width="141" height="141" rx="70.5" stroke="black" stroke-width="2"/>
<path d="M48.1087 78.5V63.9545H51.6243V75.6449H57.6754V78.5H48.1087ZM64.5877 78.706C63.4419 78.706 62.457 78.4716 61.6332 78.0028C60.814 77.5294 60.1819 76.8712 59.7369 76.0284C59.2965 75.1809 59.0763 74.1984 59.0763 73.081C59.0763 71.9588 59.2965 70.9763 59.7369 70.1335C60.1819 69.286 60.814 68.6278 61.6332 68.1591C62.457 67.6856 63.4419 67.4489 64.5877 67.4489C65.7335 67.4489 66.716 67.6856 67.5352 68.1591C68.359 68.6278 68.9911 69.286 69.4315 70.1335C69.8765 70.9763 70.0991 71.9588 70.0991 73.081C70.0991 74.1984 69.8765 75.1809 69.4315 76.0284C68.9911 76.8712 68.359 77.5294 67.5352 78.0028C66.716 78.4716 65.7335 78.706 64.5877 78.706ZM64.609 76.0852C65.0257 76.0852 65.3784 75.9574 65.6673 75.7017C65.9561 75.446 66.1763 75.0909 66.3278 74.6364C66.484 74.1818 66.5621 73.6562 66.5621 73.0597C66.5621 72.4536 66.484 71.9233 66.3278 71.4688C66.1763 71.0142 65.9561 70.6591 65.6673 70.4034C65.3784 70.1477 65.0257 70.0199 64.609 70.0199C64.1781 70.0199 63.8136 70.1477 63.5153 70.4034C63.2217 70.6591 62.9968 71.0142 62.8406 71.4688C62.689 71.9233 62.6133 72.4536 62.6133 73.0597C62.6133 73.6562 62.689 74.1818 62.8406 74.6364C62.9968 75.0909 63.2217 75.446 63.5153 75.7017C63.8136 75.9574 64.1781 76.0852 64.609 76.0852ZM76.9634 82.8182C75.9265 82.8182 75.0387 82.6738 74.3001 82.3849C73.5614 82.0961 72.9814 81.7008 72.56 81.1989C72.1386 80.697 71.8853 80.1288 71.8001 79.4943L75.0884 79.3097C75.15 79.5322 75.2636 79.7263 75.4293 79.892C75.5998 80.0578 75.82 80.1856 76.0898 80.2756C76.3645 80.3655 76.6864 80.4105 77.0558 80.4105C77.6381 80.4105 78.1187 80.2685 78.4975 79.9844C78.881 79.705 79.0728 79.215 79.0728 78.5142V76.5966H78.9521C78.8147 76.9328 78.6064 77.2334 78.3271 77.4986C78.0477 77.7637 77.6997 77.9721 77.283 78.1236C76.8711 78.2751 76.3976 78.3509 75.8626 78.3509C75.0671 78.3509 74.3379 78.1662 73.6751 77.7969C73.0169 77.4228 72.489 76.8452 72.0913 76.0639C71.6983 75.2779 71.5018 74.267 71.5018 73.0312C71.5018 71.7576 71.7054 70.7088 72.1126 69.8849C72.5198 69.0563 73.0524 68.4432 73.7106 68.0455C74.3735 67.6477 75.0861 67.4489 75.8484 67.4489C76.4213 67.4489 76.9113 67.5483 77.3185 67.7472C77.7305 67.9413 78.069 68.1922 78.3342 68.5C78.5993 68.8078 78.8005 69.1274 78.9379 69.4588H79.0373V67.5909H82.4961V78.5426C82.4961 79.4659 82.2641 80.2448 81.8001 80.8793C81.3361 81.5137 80.6874 81.9943 79.854 82.321C79.0207 82.6525 78.0572 82.8182 76.9634 82.8182ZM77.07 75.8224C77.4914 75.8224 77.8512 75.7112 78.1495 75.4886C78.4478 75.2661 78.6774 74.9465 78.8384 74.5298C78.9994 74.1132 79.0799 73.6136 79.0799 73.0312C79.0799 72.4394 78.9994 71.9304 78.8384 71.5043C78.6822 71.0734 78.4525 70.742 78.1495 70.5099C77.8512 70.2779 77.4914 70.1619 77.07 70.1619C76.6391 70.1619 76.2745 70.2803 75.9762 70.517C75.6779 70.7538 75.4506 71.0876 75.2944 71.5185C75.1429 71.9446 75.0671 72.4489 75.0671 73.0312C75.0671 73.6136 75.1452 74.1132 75.3015 74.5298C75.4577 74.9465 75.6826 75.2661 75.9762 75.4886C76.2745 75.7112 76.6391 75.8224 77.07 75.8224ZM89.8026 78.706C88.6567 78.706 87.6719 78.4716 86.848 78.0028C86.0289 77.5294 85.3968 76.8712 84.9517 76.0284C84.5114 75.1809 84.2912 74.1984 84.2912 73.081C84.2912 71.9588 84.5114 70.9763 84.9517 70.1335C85.3968 69.286 86.0289 68.6278 86.848 68.1591C87.6719 67.6856 88.6567 67.4489 89.8026 67.4489C90.9484 67.4489 91.9309 67.6856 92.75 68.1591C93.5739 68.6278 94.206 69.286 94.6463 70.1335C95.0914 70.9763 95.3139 71.9588 95.3139 73.081C95.3139 74.1984 95.0914 75.1809 94.6463 76.0284C94.206 76.8712 93.5739 77.5294 92.75 78.0028C91.9309 78.4716 90.9484 78.706 89.8026 78.706ZM89.8239 76.0852C90.2405 76.0852 90.5933 75.9574 90.8821 75.7017C91.1709 75.446 91.3911 75.0909 91.5426 74.6364C91.6989 74.1818 91.777 73.6562 91.777 73.0597C91.777 72.4536 91.6989 71.9233 91.5426 71.4688C91.3911 71.0142 91.1709 70.6591 90.8821 70.4034C90.5933 70.1477 90.2405 70.0199 89.8239 70.0199C89.393 70.0199 89.0284 70.1477 88.7301 70.4034C88.4366 70.6591 88.2116 71.0142 88.0554 71.4688C87.9039 71.9233 87.8281 72.4536 87.8281 73.0597C87.8281 73.6562 87.9039 74.1818 88.0554 74.6364C88.2116 75.0909 88.4366 75.446 88.7301 75.7017C89.0284 75.9574 89.393 76.0852 89.8239 76.0852Z" fill="black"/>
</svg>
