<svg width="143" height="143" viewBox="0 0 143 143" fill="none" xmlns="http://www.w3.org/2000/svg">
<rect x="1" y="1" width="141" height="141" rx="70.5" fill="white"/>
<rect x="1" y="1" width="141" height="141" rx="70.5" stroke="black" stroke-width="2"/>
<path d="M23.7427 86V56.303H30.9204V80.1708H43.2748V86H23.7427ZM57.3874 86.4205C55.048 86.4205 53.0373 85.942 51.3552 84.985C49.6828 84.0183 48.3923 82.6746 47.4836 80.9538C46.5846 79.2234 46.135 77.2175 46.135 74.9361C46.135 72.6451 46.5846 70.6392 47.4836 68.9184C48.3923 67.1881 49.6828 65.8443 51.3552 64.8873C53.0373 63.9206 55.048 63.4373 57.3874 63.4373C59.7268 63.4373 61.7327 63.9206 63.4051 64.8873C65.0872 65.8443 66.3777 67.1881 67.2767 68.9184C68.1854 70.6392 68.6398 72.6451 68.6398 74.9361C68.6398 77.2175 68.1854 79.2234 67.2767 80.9538C66.3777 82.6746 65.0872 84.0183 63.4051 84.985C61.7327 85.942 59.7268 86.4205 57.3874 86.4205ZM57.4309 81.0698C58.2816 81.0698 59.0018 80.8088 59.5915 80.2868C60.1812 79.7648 60.6307 79.0398 60.94 78.1117C61.259 77.1837 61.4185 76.1107 61.4185 74.8926C61.4185 73.6553 61.259 72.5726 60.94 71.6445C60.6307 70.7165 60.1812 69.9915 59.5915 69.4695C59.0018 68.9474 58.2816 68.6864 57.4309 68.6864C56.5512 68.6864 55.8069 68.9474 55.1978 69.4695C54.5985 69.9915 54.1393 70.7165 53.8203 71.6445C53.511 72.5726 53.3563 73.6553 53.3563 74.8926C53.3563 76.1107 53.511 77.1837 53.8203 78.1117C54.1393 79.0398 54.5985 79.7648 55.1978 80.2868C55.8069 80.8088 56.5512 81.0698 57.4309 81.0698ZM82.6545 94.8163C80.5374 94.8163 78.7249 94.5214 77.2168 93.9318C75.7088 93.3421 74.5246 92.5349 73.6642 91.5102C72.8038 90.4855 72.2867 89.3254 72.1126 88.0301L78.8264 87.6531C78.952 88.1074 79.184 88.5037 79.5224 88.8421C79.8704 89.1804 80.3199 89.4414 80.8709 89.6251C81.4316 89.8088 82.089 89.9006 82.843 89.9006C84.032 89.9006 85.0132 89.6106 85.7866 89.0306C86.5696 88.4602 86.9611 87.4597 86.9611 86.029V82.1139H86.7146C86.4343 82.8002 86.0089 83.4141 85.4386 83.9554C84.8682 84.4968 84.1577 84.9221 83.307 85.2315C82.466 85.5408 81.4993 85.6955 80.4069 85.6955C78.7829 85.6955 77.2941 85.3185 75.9408 84.5645C74.5971 83.8008 73.5192 82.6214 72.7072 81.0263C71.9048 79.4216 71.5036 77.3577 71.5036 74.8346C71.5036 72.2342 71.9193 70.093 72.7507 68.4109C73.582 66.7192 74.6696 65.4673 76.0133 64.6553C77.3667 63.8433 78.8215 63.4373 80.3779 63.4373C81.5476 63.4373 82.5482 63.6403 83.3795 64.0463C84.2205 64.4426 84.9117 64.955 85.4531 65.5833C85.9944 66.2117 86.4053 66.8642 86.6856 67.5409H86.8886V63.7273H93.9504V86.087C93.9504 87.9721 93.4767 89.5623 92.5293 90.8577C91.582 92.153 90.2576 93.1342 88.5562 93.8013C86.8548 94.4779 84.8876 94.8163 82.6545 94.8163ZM82.872 80.5333C83.7324 80.5333 84.4671 80.3061 85.0761 79.8518C85.6851 79.3975 86.1539 78.7449 86.4826 77.8942C86.8113 77.0435 86.9756 76.0237 86.9756 74.8346C86.9756 73.6263 86.8113 72.5871 86.4826 71.717C86.1636 70.8373 85.6948 70.1606 85.0761 69.687C84.4671 69.2133 83.7324 68.9764 82.872 68.9764C81.9923 68.9764 81.2479 69.2181 80.6389 69.7015C80.0299 70.1848 79.5659 70.8663 79.2469 71.746C78.9375 72.6161 78.7829 73.6456 78.7829 74.8346C78.7829 76.0237 78.9424 77.0435 79.2614 77.8942C79.5804 78.7449 80.0396 79.3975 80.6389 79.8518C81.2479 80.3061 81.9923 80.5333 82.872 80.5333ZM108.868 86.4205C106.528 86.4205 104.518 85.942 102.836 84.985C101.163 84.0183 99.8726 82.6746 98.9639 80.9538C98.0649 79.2234 97.6154 77.2175 97.6154 74.9361C97.6154 72.6451 98.0649 70.6392 98.9639 68.9184C99.8726 67.1881 101.163 65.8443 102.836 64.8873C104.518 63.9206 106.528 63.4373 108.868 63.4373C111.207 63.4373 113.213 63.9206 114.885 64.8873C116.567 65.8443 117.858 67.1881 118.757 68.9184C119.666 70.6392 120.12 72.6451 120.12 74.9361C120.12 77.2175 119.666 79.2234 118.757 80.9538C117.858 82.6746 116.567 84.0183 114.885 84.985C113.213 85.942 111.207 86.4205 108.868 86.4205ZM108.911 81.0698C109.762 81.0698 110.482 80.8088 111.072 80.2868C111.661 79.7648 112.111 79.0398 112.42 78.1117C112.739 77.1837 112.899 76.1107 112.899 74.8926C112.899 73.6553 112.739 72.5726 112.42 71.6445C112.111 70.7165 111.661 69.9915 111.072 69.4695C110.482 68.9474 109.762 68.6864 108.911 68.6864C108.032 68.6864 107.287 68.9474 106.678 69.4695C106.079 69.9915 105.62 70.7165 105.301 71.6445C104.991 72.5726 104.837 73.6553 104.837 74.8926C104.837 76.1107 104.991 77.1837 105.301 78.1117C105.62 79.0398 106.079 79.7648 106.678 80.2868C107.287 80.8088 108.032 81.0698 108.911 81.0698Z" fill="black"/>
</svg>
